<?xml version="1.0" encoding="utf-8"?>
<svg width="100" height="50" viewBox="0 5 100 50" fill="none" xmlns="http://www.w3.org/2000/svg">
  <path d="M43.3581 29.8167C43.3581 40.9636 33.6521 50 21.6791 50C9.70604 50 0 40.9636 0 29.8167C0 18.6697 9.70604 9.6333 21.6791 9.6333C33.6521 9.6333 43.3581 18.6697 43.3581 29.8167Z" fill="#51AF5B"/>
  <path d="M10.8867 10.1048C15.1545 8.07382 19.9807 7.28731 24.7358 7.84784C29.4909 8.40838 33.9543 10.29 37.5437 13.2472C41.1332 16.2044 43.6822 20.1001 44.8582 24.426C46.0343 28.752 45.7829 33.3075 44.1368 37.4985L21.7403 29.8737L10.8867 10.1048Z" fill="#44924C"/>
  <path d="M66.6439 30.3751C66.6439 32.2669 66.0414 33.7159 64.8363 34.7221C63.6371 35.7282 61.9026 36.2313 59.6328 36.2313H56V24.7389H60.0277C62.1219 24.7389 63.7482 25.2341 64.9065 26.2246C66.0648 27.215 66.6439 28.5985 66.6439 30.3751ZM63.8184 30.4379C63.8184 27.9697 62.6016 26.7355 60.1681 26.7355H58.7202V34.219H59.8873C62.508 34.219 63.8184 32.9586 63.8184 30.4379Z" fill="#ffffff" style="stroke: rgb(76, 142, 67);"/>
  <path d="M72.0229 30.1471H72.918C73.7545 30.1471 74.3805 30.0004 74.7958 29.7069C75.2111 29.4082 75.4188 28.9758 75.4188 28.4099C75.4188 27.8387 75.2433 27.4168 74.8923 27.1443C74.5472 26.8718 74.0031 26.7355 73.2602 26.7355H72.0229V30.1471ZM78.1654 28.3234C78.1654 29.5602 77.7325 30.5061 76.8667 31.1611C76.0067 31.8162 74.7812 32.1437 73.19 32.1437H72.0229V36.2313H69.3027V24.7389H73.4006C74.9567 24.7389 76.1384 25.0402 76.9456 25.6429C77.7588 26.2403 78.1654 27.1338 78.1654 28.3234Z" fill="#ffffff" style="stroke: rgb(76, 142, 67);"/>
  <path d="M89.4323 36.2313H86.756V31.0983C86.756 29.8301 86.2295 29.196 85.1765 29.196C84.4277 29.196 83.8866 29.4239 83.5531 29.8798C83.2197 30.3358 83.053 31.0747 83.053 32.0966V36.2313H80.3766V24H83.053V26.4919C83.053 26.6858 83.0325 27.1417 82.9915 27.8596L82.9301 28.5671H83.0705C83.6672 27.7077 84.6149 27.2779 85.9136 27.2779C87.066 27.2779 87.9406 27.5557 88.5373 28.1112C89.134 28.6667 89.4323 29.4632 89.4323 30.5008V36.2313Z" fill="#ffffff" style="stroke: rgb(76, 142, 67);"/>
  <path d="M92.0736 25.1713C92.0736 24.3904 92.5591 24 93.5302 24C94.5013 24 94.9868 24.3904 94.9868 25.1713C94.9868 25.5433 94.864 25.8342 94.6183 26.0438C94.3784 26.2482 94.0157 26.3504 93.5302 26.3504C92.5591 26.3504 92.0736 25.9573 92.0736 25.1713ZM94.864 36.2313H92.1876V27.443H94.864V36.2313Z" fill="#ffffff" style="stroke: rgb(76, 142, 67);"/>
  <path d="M11.0589 35.9247C9.48448 35.9247 8.24573 35.377 7.34264 34.2816C6.44755 33.1863 6 31.6685 6 29.7283C6 27.7595 6.45554 26.2274 7.36662 25.132C8.28569 24.0294 9.54842 23.4782 11.1548 23.4782C12.8411 23.4782 14.1278 24.0652 15.0149 25.2394H15.1348C14.951 24.3445 14.8591 23.5462 14.8591 22.8446V19H18.5273V35.7099H15.7222L15.0149 34.1528H14.8591C14.0279 35.3341 12.7612 35.9247 11.0589 35.9247ZM12.3416 33.3151C13.2766 33.3151 13.96 33.0717 14.3915 32.5849C14.8311 32.098 15.0708 31.2711 15.1108 30.1042V29.7498C15.1108 28.4611 14.887 27.5375 14.4395 26.9791C13.9999 26.4207 13.2806 26.1415 12.2817 26.1415C11.4665 26.1415 10.8311 26.4529 10.3756 27.0757C9.92803 27.6915 9.70426 28.5899 9.70426 29.7712C9.70426 30.9525 9.93203 31.8403 10.3876 32.4345C10.8431 33.0216 11.4944 33.3151 12.3416 33.3151Z" fill="white"/>
  <path d="M35.2624 29.3739C35.2624 28.257 35.0746 27.4015 34.699 26.8073C34.3234 26.2059 33.7759 25.9052 33.0567 25.9052C32.6011 25.9052 32.2455 26.0484 31.9897 26.3348C31.734 26.614 31.6061 27.1008 31.6061 27.7953V33.3581C32.701 33.2722 33.5841 32.8641 34.2555 32.1338C34.9268 31.4036 35.2624 30.4836 35.2624 29.3739ZM28.2136 40.9935V35.8388C26.0158 35.624 24.3535 34.9976 23.2266 33.9595C22.0997 32.9142 21.5363 31.511 21.5363 29.7498C21.5363 28.6401 21.7561 27.5733 22.1956 26.5495C22.6352 25.5186 23.3345 24.4805 24.2935 23.4352L26.9428 24.9816C26.2236 25.8551 25.7161 26.6641 25.4204 27.4087C25.1247 28.1461 24.9768 28.9479 24.9768 29.8142C24.9768 31.8045 26.0557 32.9858 28.2136 33.3581V27.8167C28.2136 26.4923 28.6411 25.447 29.4963 24.6809C30.3514 23.9077 31.5222 23.5211 33.0087 23.5211C34.8069 23.5211 36.2175 24.0438 37.2404 25.089C38.2634 26.1343 38.7749 27.5554 38.7749 29.3524C38.7749 30.5767 38.4752 31.6577 37.8758 32.5956C37.2844 33.5263 36.4452 34.2709 35.3583 34.8293C34.2794 35.3806 33.0287 35.7171 31.6061 35.8388V40.9935H28.2136Z" fill="white"/>
</svg>